<svg width="30" height="27" viewBox="0 0 30 27" fill="none" xmlns="http://www.w3.org/2000/svg">
<path d="M7.65247 17.7885C7.23774 17.4608 6.71795 17.2803 6.18888 17.2803C5.46985 17.2803 4.80027 17.5998 4.3518 18.1569C3.95966 18.6447 3.78211 19.2549 3.85209 19.875C3.92217 20.4965 4.23218 21.0532 4.72493 21.4426C5.13965 21.7704 5.65927 21.9509 6.18825 21.9509C6.90782 21.9509 7.57749 21.6308 8.0256 21.0731C8.41738 20.5861 8.59475 19.9766 8.52504 19.3568C8.45514 18.7353 8.1453 18.1783 7.65247 17.7885ZM7.1907 20.4019C6.94683 20.7056 6.58138 20.8798 6.18825 20.8798C5.89519 20.8798 5.61883 20.7838 5.38924 20.6024C5.12225 20.3913 4.95443 20.0904 4.91649 19.755C4.87882 19.4209 4.97469 19.0916 5.18634 18.8285C5.4303 18.5253 5.79575 18.3515 6.18888 18.3515C6.4822 18.3515 6.75866 18.4474 6.98816 18.6288C7.25506 18.8398 7.42279 19.1409 7.46055 19.4766C7.49813 19.8104 7.40244 20.1389 7.1907 20.4019Z" fill="#2FA8DD"/>
<path d="M17.0708 12.3028C17.4242 12.3028 17.7658 12.2254 18.087 12.0723C18.6549 11.8005 19.0815 11.3252 19.288 10.7337C19.4934 10.146 19.4565 9.51357 19.1842 8.95344C18.7947 8.15058 17.963 7.63177 17.0652 7.63177C16.7112 7.63177 16.3689 7.70944 16.0477 7.8627C15.48 8.13354 15.0532 8.60851 14.8464 9.20016C14.6406 9.78833 14.6775 10.4209 14.9502 10.9813C15.3409 11.784 16.1733 12.3028 17.0708 12.3028ZM15.8574 9.55374C15.9693 9.23373 16.2007 8.97647 16.5088 8.82945C16.6849 8.74554 16.872 8.70296 17.0651 8.70296C17.5553 8.70296 18.0088 8.98477 18.2205 9.42136C18.3673 9.72344 18.3872 10.064 18.2767 10.3805C18.1649 10.7007 17.9332 10.9583 17.6254 11.1056C17.45 11.1893 17.2634 11.2316 17.0708 11.2316C16.5802 11.2316 16.1258 10.9493 15.9132 10.5125C15.7665 10.2109 15.7467 9.87046 15.8574 9.55374Z" fill="#2FA8DD"/>
<path d="M11.2422 8.51769C11.4145 8.55661 11.5908 8.57634 11.7662 8.57634C12.8688 8.57634 13.8108 7.83062 14.0572 6.76184C14.1956 6.15582 14.0891 5.53195 13.7576 5.00493C13.4233 4.4738 12.9008 4.1046 12.2869 3.96552C12.1139 3.92625 11.9368 3.90625 11.7606 3.90625C10.6587 3.90625 9.71771 4.65277 9.47214 5.72137C9.33253 6.32694 9.43831 6.95091 9.76993 7.47829C10.1045 8.01013 10.6275 8.37933 11.2422 8.51769ZM10.5161 5.96167C10.6492 5.38225 11.161 4.97752 11.7606 4.97752C11.8569 4.97752 11.9542 4.9885 12.0498 5.01019C12.3847 5.08607 12.6692 5.28683 12.8509 5.57551C13.03 5.86 13.0875 6.19653 13.013 6.52217C12.8817 7.09177 12.3573 7.50516 11.7661 7.50516C11.67 7.50516 11.5732 7.49427 11.4778 7.47275C11.1428 7.39732 10.8583 7.19674 10.6767 6.90806C10.498 6.62375 10.4409 6.28776 10.5161 5.96167Z" fill="#2FA8DD"/>
<path d="M6.98627 9.85389C7.47848 9.46389 7.78796 8.90678 7.85794 8.28523C7.92766 7.66555 7.75065 7.05604 7.35868 6.56821C6.9095 6.01128 6.23939 5.69189 5.52036 5.69189C4.99182 5.69189 4.47256 5.87185 4.05775 6.19901C3.56545 6.58785 3.25579 7.14406 3.18554 7.76517C3.11537 8.38565 3.29283 8.99622 3.68551 9.48486C4.13434 10.0424 4.80454 10.3623 5.52437 10.3623C6.05336 10.3622 6.57261 10.1817 6.98627 9.85389ZM4.52032 8.81332C4.30822 8.54945 4.21226 8.21989 4.25011 7.88532C4.28796 7.55031 4.4556 7.24984 4.72161 7.03962C4.95111 6.85859 5.22739 6.7629 5.52045 6.7629C5.91393 6.7629 6.28018 6.93697 6.52432 7.23966C6.73543 7.50264 6.83113 7.8314 6.79355 8.16534C6.75579 8.50134 6.58797 8.80288 6.32115 9.01426C6.09272 9.1952 5.81716 9.29089 5.52446 9.29089C5.13054 9.29098 4.76455 9.11673 4.52032 8.81332Z" fill="#2FA8DD"/>
<path d="M28.891 4.6128C28.7984 4.51943 28.6332 4.40811 28.3727 4.40811C28.0671 4.40811 27.2554 4.40811 22.3259 8.60286C22.2268 8.68713 22.1268 8.77256 22.0265 8.85861C21.1457 6.56101 19.5982 4.51264 17.6041 3.03102C15.3176 1.33221 12.5951 0.433759 9.73089 0.433044C9.73 0.433044 9.72937 0.433044 9.72866 0.433044C7.79571 0.433044 5.44607 1.10843 3.59641 2.19594C1.32907 3.52885 0.0806085 5.31148 0.0810548 7.21524C0.0817689 9.51364 1.37808 10.475 2.41971 11.2474C3.26907 11.8774 3.9399 12.3749 3.94026 13.4651C3.94053 14.5553 3.27005 15.0524 2.42114 15.6817C1.37986 16.4536 0.083822 17.4145 0.0845362 19.7132C0.0850717 21.6167 1.33434 23.3997 3.60212 24.7338C5.45312 25.8227 7.80401 26.4995 9.73732 26.5C9.73866 26.5 9.73982 26.5 9.74107 26.5C13.2496 26.5 16.5479 25.1458 19.0286 22.6866C21.4777 20.2588 22.8398 17.0409 22.8755 13.6118C23.7071 12.6655 24.5128 11.7249 25.2482 10.8386C26.5065 9.32234 27.474 8.0712 28.124 7.12008C28.985 5.86028 29.3621 5.0876 28.891 4.6128ZM18.2746 21.9259C15.9957 24.185 12.9655 25.4288 9.74116 25.4288C9.74018 25.4288 9.73875 25.4288 9.73776 25.4288C6.28258 25.4278 1.1567 23.0273 1.15572 19.7128C1.15518 17.9537 2.07997 17.268 3.05912 16.5421C3.97436 15.8635 5.01171 15.0944 5.01135 13.4648C5.01081 11.8354 3.9732 11.0659 3.05769 10.387C2.0781 9.66048 1.15277 8.9743 1.15224 7.21497C1.15179 5.17963 3.0235 3.77531 4.13932 3.1193C5.8084 2.13801 8.00209 1.50414 9.72866 1.50414C9.72928 1.50414 9.73 1.50414 9.73053 1.50414C12.3631 1.50485 14.8648 2.3302 16.9653 3.89073C18.9025 5.33013 20.3813 7.35074 21.1602 9.60808C18.8371 11.6365 16.3214 13.9753 14.4479 15.8549C11.3362 16.2576 10.9123 18.3314 10.6024 19.8549C10.3385 21.1521 10.1672 21.7793 9.16593 21.8596C8.9192 21.8795 8.71827 22.0657 8.67979 22.3102C8.64123 22.5546 8.77522 22.7936 9.00391 22.8883C9.06828 22.9149 10.5997 23.5407 12.3889 23.5408C12.3892 23.5408 12.3894 23.5408 12.3896 23.5408C13.6364 23.5408 14.706 23.2385 15.5685 22.6425C16.6313 21.908 17.3519 20.7436 17.7141 19.182C18.9382 17.9435 20.3368 16.4501 21.7199 14.9118C21.4016 17.5603 20.2064 20.0108 18.2746 21.9259ZM16.638 19.0805C16.0704 21.3297 14.6424 22.4698 12.3895 22.4697C12.3895 22.4697 12.3891 22.4697 12.3889 22.4697C11.7949 22.4697 11.226 22.3886 10.7477 22.2876C11.319 21.7049 11.4974 20.8282 11.652 20.0686C11.9463 18.6218 12.2246 17.2526 14.5016 16.9273L16.638 19.0805ZM24.0341 10.6218C21.9109 13.1513 19.341 15.9919 17.2254 18.1517L16.8979 17.8216L15.4528 16.365C17.3709 14.4556 19.8316 12.1789 22.1274 10.1864C22.395 9.95416 22.661 9.72484 22.923 9.50132C25.5873 7.22907 26.9836 6.24019 27.6959 5.80984C27.2705 6.52638 26.2907 7.93328 24.0341 10.6218Z" fill="#2FA8DD"/>
</svg>
