<svg width="31" height="31" viewBox="0 0 31 31" fill="none" xmlns="http://www.w3.org/2000/svg">
<path d="M15.6053 11.451H4.24936C4.00435 11.451 3.80579 11.6497 3.80579 11.8946C3.80579 12.1396 4.00435 12.3382 4.24936 12.3382H15.6054C15.8504 12.3382 16.049 12.1396 16.049 11.8946C16.049 11.6497 15.8504 11.451 15.6053 11.451Z" fill="#2FA8DD"/>
<path d="M15.6053 14.5681H4.24936C4.00435 14.5681 3.80579 14.7667 3.80579 15.0116C3.80579 15.2566 4.00435 15.4552 4.24936 15.4552H15.6054C15.8504 15.4552 16.049 15.2566 16.049 15.0116C16.049 14.7667 15.8504 14.5681 15.6053 14.5681Z" fill="#2FA8DD"/>
<path d="M15.6053 17.685H4.24936C4.00435 17.685 3.80579 17.8837 3.80579 18.1286C3.80579 18.3735 4.00435 18.5722 4.24936 18.5722H15.6054C15.8504 18.5722 16.049 18.3735 16.049 18.1286C16.049 17.8837 15.8504 17.685 15.6053 17.685Z" fill="#2FA8DD"/>
<path d="M16.049 21.2457C16.049 21.0007 15.8504 20.8021 15.6054 20.8021H4.24936C4.00435 20.8021 3.80579 21.0007 3.80579 21.2457C3.80579 21.4906 4.00435 21.6892 4.24936 21.6892H15.6054C15.8504 21.6892 16.049 21.4907 16.049 21.2457Z" fill="#2FA8DD"/>
<path d="M4.24936 25.3701C4.00435 25.3701 3.80579 25.5687 3.80579 25.8137C3.80579 26.0586 4.00435 26.2573 4.24936 26.2573H9.94189C10.1869 26.2573 10.3855 26.0586 10.3855 25.8137C10.3855 25.5687 10.1869 25.3701 9.94189 25.3701H4.24936Z" fill="#2FA8DD"/>
<path d="M20.7172 6.20719V4.76782C20.7172 4.21949 20.2711 3.77338 19.7227 3.77338H10.6155C10.0671 3.77338 9.62109 4.21949 9.62109 4.76782V6.20719C9.62109 6.75551 10.0671 7.20157 10.6155 7.20157H11.3846C11.6296 7.20157 11.8281 7.00294 11.8281 6.758C11.8281 6.51299 11.6296 6.31443 11.3846 6.31443H10.6155C10.5564 6.31443 10.5083 6.26634 10.5083 6.20725V4.76782C10.5083 4.70872 10.5564 4.66058 10.6155 4.66058H19.7227C19.7819 4.66058 19.83 4.70867 19.83 4.76782V6.20719C19.83 6.26628 19.7819 6.31437 19.7227 6.31437H13.4584C13.2134 6.31437 13.0148 6.51299 13.0148 6.75794C13.0148 7.00294 13.2134 7.20151 13.4584 7.20151H19.7228C20.2711 7.20163 20.7172 6.75551 20.7172 6.20719Z" fill="#2FA8DD"/>
<path d="M24.034 27.7642C23.789 27.7642 23.5904 27.9629 23.5904 28.2078V28.8052C23.5904 29.5261 23.0038 30.1128 22.2827 30.1128H2.65877C1.93779 30.1128 1.35113 29.5262 1.35113 28.8052V7.48339C1.35113 7.38739 1.36237 7.29322 1.38242 7.20159H5.4214C6.26465 7.20159 6.95068 6.51556 6.95068 5.67231V1.63339C7.0423 1.61334 7.13641 1.6021 7.23241 1.6021H22.2826C23.0037 1.6021 23.5903 2.1887 23.5903 2.90975V8.81546C23.5903 9.06046 23.7889 9.25903 24.0339 9.25903C24.2789 9.25903 24.4775 9.0604 24.4775 8.81546V2.90969C24.4775 1.69953 23.4929 0.714905 22.2827 0.714905H7.23247C6.64623 0.714905 6.09501 0.943226 5.68048 1.35775L1.10678 5.93145C0.692251 6.34598 0.463989 6.89715 0.463989 7.48345V28.8052C0.463989 30.0154 1.44855 31 2.65877 31H22.2827C23.4929 31 24.4775 30.0154 24.4775 28.8052V28.2079C24.4775 27.9629 24.279 27.7642 24.034 27.7642ZM6.06354 2.2294V5.67231C6.06354 6.02639 5.77547 6.31445 5.4214 6.31445H1.97848L6.06354 2.2294Z" fill="#2FA8DD"/>
<path d="M30.1096 16.5672C30.4209 16.1102 30.5015 15.5464 30.3306 15.0204C30.1597 14.4945 29.7631 14.0857 29.2426 13.8991C28.8973 13.7752 28.6669 13.4582 28.6559 13.0914C28.6392 12.5387 28.3729 12.0352 27.9254 11.7101C27.4781 11.385 26.9169 11.2875 26.3862 11.4424C26.0337 11.5452 25.6613 11.424 25.4367 11.1339C25.0983 10.6965 24.587 10.4456 24.034 10.4456C23.481 10.4456 22.9696 10.6965 22.6312 11.1339C22.4066 11.4241 22.0339 11.545 21.6818 11.4424C21.151 11.2874 20.5899 11.385 20.1424 11.7101C19.695 12.0352 19.4289 12.5386 19.4121 13.0914C19.401 13.4581 19.1707 13.7751 18.8253 13.899C18.3048 14.0857 17.9082 14.4945 17.7373 15.0204C17.5665 15.5463 17.647 16.1102 17.9584 16.5672C18.1649 16.8704 18.1649 17.2622 17.9584 17.5655C17.647 18.0225 17.5665 18.5863 17.7373 19.1122C17.9082 19.6382 18.3048 20.0469 18.8253 20.2337C19.1707 20.3576 19.4011 20.6746 19.4121 21.0413C19.4275 21.5498 19.6605 22.0275 20.0515 22.352C20.3094 22.5661 20.6193 22.7001 20.9437 22.7449V26.7835C20.9437 27.1243 21.1285 27.4393 21.426 27.6054C21.7231 27.7715 22.0883 27.7641 22.3787 27.5853L24.0056 26.5837C24.0321 26.5673 24.0479 26.5747 24.0626 26.5837L25.6894 27.5853C25.9796 27.7639 26.3448 27.7716 26.6422 27.6054C26.9397 27.4392 27.1245 27.1242 27.1245 26.7835V22.7447C27.4487 22.7 27.7586 22.566 28.0165 22.352C28.4076 22.0275 28.6406 21.5498 28.6561 21.0413C28.6671 20.6745 28.8975 20.3575 29.2428 20.2336C29.7634 20.0469 30.16 19.6381 30.3308 19.1122C30.5017 18.5862 30.4211 18.0225 30.1098 17.5654C29.903 17.2623 29.903 16.8705 30.1096 16.5672ZM26.1544 26.8298L24.5275 25.8283C24.225 25.6421 23.8432 25.6418 23.5404 25.8283L21.9136 26.8297C21.8765 26.8523 21.8308 26.8263 21.8308 26.7835V22.6606C22.1358 22.6253 22.4382 22.7494 22.6312 22.9988C22.9697 23.4362 23.481 23.6871 24.034 23.6871C24.587 23.6871 25.0983 23.4362 25.4367 22.9988C25.6298 22.7494 25.9322 22.6253 26.2372 22.6606V26.7835C26.2372 26.8266 26.1908 26.8523 26.1544 26.8298ZM29.3764 18.0651C29.5321 18.2935 29.5723 18.5753 29.4869 18.8381C29.4015 19.101 29.2033 19.3053 28.9431 19.3986C28.2521 19.6465 27.7913 20.2808 27.7691 21.0145C27.7612 21.2725 27.6478 21.505 27.4499 21.6693C27.2273 21.854 26.9259 21.9237 26.6347 21.8388C25.9301 21.6332 25.1843 21.8755 24.735 22.456C24.5659 22.6745 24.3103 22.7999 24.0339 22.7999C23.7576 22.7999 23.502 22.6746 23.3328 22.456C22.9897 22.0126 22.4739 21.7665 21.9354 21.7665C21.7688 21.7665 21.5998 21.7901 21.4332 21.8387C21.1393 21.9244 20.8387 21.8526 20.6179 21.6693C20.4199 21.5049 20.3065 21.2724 20.2988 21.0145C20.2766 20.2808 19.8158 19.6465 19.1247 19.3986C18.8646 19.3052 18.6664 19.101 18.5809 18.8381C18.4955 18.5753 18.5358 18.2935 18.6914 18.065C19.1047 17.4583 19.1047 16.6744 18.6914 16.0677C18.5358 15.8393 18.4955 15.5575 18.5809 15.2945C18.6664 15.0317 18.8646 14.8274 19.1247 14.7341C19.8158 14.4862 20.2766 13.8519 20.2988 13.1182C20.3071 12.8419 20.4401 12.5902 20.6638 12.4278C20.8873 12.2653 21.1677 12.2166 21.4332 12.294C22.1377 12.4996 22.8836 12.2573 23.3328 11.6768C23.5019 11.4582 23.7575 11.3328 24.0339 11.3328C24.3103 11.3328 24.5659 11.4581 24.735 11.6767C25.1843 12.2573 25.9298 12.4996 26.6347 12.294C26.9 12.2165 27.1804 12.2653 27.404 12.4278C27.6277 12.5902 27.7608 12.8419 27.769 13.1181C27.7913 13.8519 28.2521 14.4862 28.9431 14.734C29.2033 14.8273 29.4014 15.0316 29.4869 15.2945C29.5723 15.5574 29.5321 15.8392 29.3764 16.0676C28.963 16.6744 28.963 17.4584 29.3764 18.0651Z" fill="#2FA8DD"/>
<path d="M24.0339 13.3484C21.9838 13.3484 20.316 15.0163 20.316 17.0663C20.316 19.1163 21.9838 20.7842 24.0339 20.7842C26.0839 20.7842 27.7517 19.1163 27.7517 17.0663C27.7517 15.0163 26.0839 13.3484 24.0339 13.3484ZM24.0339 19.897C22.473 19.897 21.2032 18.6272 21.2032 17.0664C21.2032 15.5056 22.473 14.2356 24.0339 14.2356C25.5948 14.2356 26.8645 15.5055 26.8645 17.0664C26.8645 18.6272 25.5947 19.897 24.0339 19.897Z" fill="#2FA8DD"/>
</svg>
