<svg width="32" height="32" viewBox="0 0 32 32" fill="none" xmlns="http://www.w3.org/2000/svg">
<path d="M0.259888 27.4472L1.2877 27.5547C1.54158 25.1245 2.10372 22.7365 2.96056 20.4483L1.99288 20.0856C1.10523 22.456 0.52289 24.9297 0.259888 27.4472Z" fill="#2FA8DD"/>
<path d="M0.0958252 30.6012V31.6346H1.12925V30.6012C1.12925 29.925 1.15289 29.2416 1.1994 28.5701L0.168488 28.4986C0.12024 29.1938 0.0958252 29.9012 0.0958252 30.6012Z" fill="#2FA8DD"/>
<path d="M6.29651 30.8188V31.6347H7.32994V30.8188C7.32888 28.8716 7.57713 26.9322 8.06865 25.0481L7.06881 24.7867C6.555 26.7562 6.29546 28.7833 6.29651 30.8188Z" fill="#2FA8DD"/>
<path d="M10.5774 23.7325L11.308 23.0018L12.3413 24.0351L11.6106 24.7657L10.5774 23.7325Z" fill="#2FA8DD"/>
<path d="M8.51086 21.6655L9.2415 20.9348L10.2748 21.9681L9.54412 22.6987L8.51086 21.6655Z" fill="#2FA8DD"/>
<path d="M6.44446 19.5985L7.17509 18.8679L8.20834 19.9011L7.47771 20.6318L6.44446 19.5985Z" fill="#2FA8DD"/>
<path d="M4.37805 17.5315L5.10869 16.8009L6.14194 17.8341L5.4113 18.5648L4.37805 17.5315Z" fill="#2FA8DD"/>
<path d="M2.31152 15.4645L3.04216 14.7339L4.07541 15.7672L3.34478 16.4978L2.31152 15.4645Z" fill="#2FA8DD"/>
<path d="M30.7333 25.7994L31.4641 25.0687L30.2793 23.8839L30.9473 23.2159C30.9953 23.1679 31.0334 23.1109 31.0594 23.0482C31.0853 22.9855 31.0987 22.9183 31.0987 22.8505C31.0987 22.7826 31.0853 22.7154 31.0594 22.6527C31.0334 22.59 30.9953 22.5331 30.9473 22.4851L27.9439 19.4817L27.2132 20.2125L28.301 21.3003L21.9491 27.6522L22.6799 28.383L29.0318 22.0311L29.8513 22.8505L22.3145 30.3872L7.17849 15.2512C7.08964 15.1637 7.01899 15.0595 6.9706 14.9446C6.92222 14.8296 6.89706 14.7063 6.89658 14.5816C6.89609 14.4569 6.92029 14.3334 6.96778 14.2181C7.01527 14.1028 7.08512 13.998 7.17328 13.9099C7.26145 13.8217 7.36619 13.7518 7.48148 13.7044C7.59677 13.6569 7.72032 13.6326 7.845 13.6331C7.96969 13.6336 8.09305 13.6588 8.20797 13.7071C8.32289 13.7555 8.4271 13.8262 8.51458 13.915L13.165 18.5654C13.213 18.6134 13.27 18.6515 13.3326 18.6774C13.3953 18.7034 13.4625 18.7168 13.5304 18.7168C13.5982 18.7168 13.6654 18.7034 13.7281 18.6774C13.7908 18.6515 13.8478 18.6134 13.8958 18.5654C13.9438 18.5175 13.9818 18.4605 14.0078 18.3978C14.0338 18.3351 14.0471 18.2679 14.0471 18.2001C14.0471 18.1322 14.0338 18.065 14.0078 18.0023C13.9818 17.9396 13.9438 17.8827 13.8958 17.8347L9.24535 13.1842C9.1565 13.0968 9.08584 12.9926 9.03746 12.8776C8.98908 12.7627 8.96392 12.6394 8.96343 12.5147C8.96295 12.39 8.98715 12.2664 9.03464 12.1512C9.08213 12.0359 9.15197 11.9311 9.24014 11.8429C9.3283 11.7548 9.43305 11.6849 9.54834 11.6374C9.66362 11.5899 9.78717 11.5657 9.91186 11.5662C10.0365 11.5667 10.1599 11.5918 10.2748 11.6402C10.3897 11.6886 10.494 11.7592 10.5814 11.8481L15.2319 16.4985C15.3288 16.5954 15.4602 16.6498 15.5972 16.6498C15.7342 16.6498 15.8656 16.5954 15.9625 16.4985C16.0561 16.3999 16.1083 16.2691 16.1083 16.1331C16.1083 15.9971 16.0561 15.8663 15.9625 15.7676L11.3121 11.1172C11.2232 11.0297 11.1526 10.9255 11.1042 10.8106C11.0558 10.6957 11.0306 10.5723 11.0302 10.4476C11.0297 10.3229 11.0539 10.1994 11.1014 10.0841C11.1489 9.96881 11.2187 9.86406 11.3069 9.77589C11.395 9.68772 11.4998 9.61788 11.6151 9.57038C11.7304 9.52288 11.8539 9.49868 11.9786 9.49916C12.1033 9.49963 12.2266 9.52479 12.3416 9.57317C12.4565 9.62155 12.5607 9.69219 12.6482 9.78104L17.2986 14.4315C17.3955 14.5283 17.5269 14.5827 17.6639 14.5827C17.8009 14.5827 17.9323 14.5283 18.0292 14.4315C18.1232 14.333 18.1757 14.2021 18.1757 14.066C18.1757 13.9299 18.1232 13.799 18.0292 13.7006L13.3788 9.05015C13.29 8.96266 13.2193 8.85846 13.1709 8.74354C13.1225 8.62862 13.0974 8.50527 13.0969 8.38058C13.0964 8.25589 13.1206 8.13234 13.1681 8.01705C13.2156 7.90176 13.2854 7.79701 13.3736 7.70884C13.4618 7.62067 13.5665 7.55083 13.6818 7.50333C13.7971 7.45583 13.9206 7.43163 14.0453 7.43211C14.17 7.43258 14.2934 7.45774 14.4083 7.50612C14.5232 7.5545 14.6274 7.62514 14.7149 7.71399L20.94 13.9391C21.0098 14.0062 21.0968 14.0525 21.1914 14.0729C21.286 14.0933 21.3844 14.0871 21.4757 14.0548C21.5669 14.0225 21.6474 13.9655 21.708 13.8901C21.7687 13.8147 21.8073 13.7239 21.8193 13.6279L22.1797 10.2038C22.2029 9.98338 22.3082 9.77981 22.4748 9.63369C22.6414 9.48756 22.857 9.40963 23.0785 9.41543C23.3001 9.42124 23.5113 9.51035 23.67 9.665C23.8287 9.81965 23.9233 10.0285 23.9348 10.2498L24.2957 17.1072C24.3024 17.2347 24.3561 17.3552 24.4464 17.4454L26.5024 19.5015L27.2332 18.7708L25.3175 16.8553L25.2712 15.9742L26.965 14.2806C27.2903 13.946 27.4752 13.4995 27.4817 13.0329C27.4823 12.8011 27.437 12.5715 27.3483 12.3573C27.2596 12.1431 27.1293 11.9487 26.965 11.7852L24.8719 9.69216C24.7778 9.40996 24.6193 9.15355 24.409 8.94321C24.1986 8.73288 23.9422 8.5744 23.66 8.48034L16.6931 1.51355C16.1282 0.949032 15.3624 0.631873 14.5638 0.631775C13.7657 0.634064 13.0006 0.95089 12.4345 1.51355L3.59508 10.3531L4.32578 11.0839L13.1652 2.24437C13.537 1.87479 14.0396 1.66669 14.5638 1.6652C15.0883 1.66531 15.5914 1.87362 15.9624 2.24437L22.2687 8.55042C21.9746 8.68281 21.7189 8.88745 21.5252 9.14528L14.9205 2.84137L14.2071 3.58912L21.1406 10.2071L20.9052 12.443L15.4459 6.98374C15.1639 6.70149 14.8031 6.51115 14.411 6.43773C14.0188 6.36431 13.6136 6.41125 13.2486 6.57238C12.8836 6.73351 12.5758 7.00128 12.3658 7.34053C12.1558 7.67977 12.0534 8.07461 12.0719 8.47317C12.0415 8.47183 12.0109 8.47114 11.9802 8.4711C11.7129 8.47104 11.4483 8.52522 11.2024 8.63036C10.9566 8.73549 10.7346 8.88941 10.55 9.08279C10.3654 9.27617 10.2219 9.50499 10.1282 9.75542C10.0345 10.0059 9.99263 10.2727 10.005 10.5398C9.9746 10.5384 9.94405 10.5377 9.91339 10.5377C9.646 10.5376 9.38137 10.5918 9.13551 10.697C8.88966 10.8021 8.6677 10.9561 8.48305 11.1495C8.2984 11.3429 8.15491 11.5717 8.06126 11.8222C7.96761 12.0727 7.92574 12.3395 7.93819 12.6066C7.90775 12.6053 7.87719 12.6046 7.84654 12.6046C7.4553 12.6046 7.07285 12.7206 6.74756 12.938C6.42226 13.1554 6.16873 13.4643 6.01901 13.8258C5.86929 14.1873 5.83011 14.585 5.90642 14.9687C5.98273 15.3524 6.1711 15.7049 6.44773 15.9816L15.1248 24.659L14.0471 25.7367L13.3791 25.0687L12.6483 25.7994L13.3163 26.4675L13.0137 26.7699C12.8751 26.9042 12.6897 26.9793 12.4967 26.9793C12.3038 26.9793 12.1184 26.9042 11.9798 26.7699L1.70836 16.4983C1.4318 16.2216 1.24348 15.8691 1.16722 15.4854C1.09095 15.1017 1.13015 14.7041 1.27988 14.3427C1.37893 14.1026 1.52459 13.8846 1.70843 13.7013L3.59379 11.8159L2.86302 11.0851L0.977727 12.9705C0.698108 13.2501 0.476307 13.582 0.324989 13.9474C0.173672 14.3127 0.0958016 14.7043 0.0958252 15.0998C0.0980552 15.8979 0.414916 16.663 0.977662 17.2291L11.2492 27.5009C11.5836 27.8265 12.0302 28.0115 12.497 28.0176C12.7288 28.0183 12.9584 27.9729 13.1725 27.8842C13.3867 27.7955 13.5812 27.6652 13.7446 27.5009L15.8556 25.3897L21.9491 31.4833C21.9971 31.5313 22.0541 31.5693 22.1168 31.5953C22.1795 31.6213 22.2467 31.6346 22.3145 31.6346C22.3824 31.6346 22.4496 31.6213 22.5123 31.5953C22.575 31.5693 22.6319 31.5313 22.6799 31.4833L23.348 30.8152L24.5327 32L25.2635 31.2692L24.0787 30.0845L29.5485 24.6146L30.7333 25.7994ZM25.1701 14.0537L25.4565 14.3273L25.1982 14.5856L25.1701 14.0537ZM26.4373 13.0329C26.439 13.1282 26.4219 13.2228 26.387 13.3115C26.3521 13.4001 26.3001 13.4811 26.234 13.5496L26.1875 13.5961L25.0909 12.549L25.0255 11.3073L26.234 12.5162C26.3667 12.6553 26.4396 12.8407 26.4373 13.0329Z" fill="#2FA8DD"/>
<path d="M19.9123 3.49643L19.5496 2.52869C22.8071 1.30796 26.3433 0.66975 30.0599 0.631836L30.0705 1.66526C26.4745 1.70189 23.0568 2.31794 19.9123 3.49643Z" fill="#2FA8DD"/>
<path d="M25.0125 8.64675L24.7837 7.63916C26.4396 7.26344 28.1653 7.07077 30.0596 7.05017L30.0708 8.0836C28.2506 8.1031 26.596 8.28738 25.0125 8.64675Z" fill="#2FA8DD"/>
</svg>
